<svg width="40" height="40" viewBox="0 0 40 40" fill="none" xmlns="http://www.w3.org/2000/svg">
<rect x="5" y="5" width="30" height="30" rx="15" fill="url(#paint0_linear_0_14)"/>
<path fill-rule="evenodd" clip-rule="evenodd" d="M23.8361 19.7388C23.8067 19.6988 23.7949 19.6487 23.8033 19.5998L24.7376 14.1518C24.7526 14.0641 24.8287 14 24.9176 14H24.946C25.0257 14 25.0962 14.0517 25.1202 14.1276L27.2345 20.8221C27.2575 20.8948 27.2329 20.9741 27.1728 21.0211L25.7986 22.094C25.7174 22.1574 25.5999 22.1412 25.5389 22.0581L23.8361 19.7388ZM12 23.3081C12 23.3871 12.0508 23.4571 12.1259 23.4817L15.2496 24.503C15.3038 24.5207 15.3632 24.5121 15.4101 24.4797L22.7164 19.4356C22.758 19.4069 22.7859 19.3622 22.7933 19.3123L23.5497 14.2369C23.5662 14.1265 23.4807 14.0273 23.3691 14.0273H17.0663C17.012 14.0273 16.9604 14.0516 16.9257 14.0934L12.042 19.9848C12.0149 20.0176 12 20.0588 12 20.1014V23.3081ZM16.7204 24.8077L20.2722 25.9712C20.3276 25.9893 20.3882 25.9799 20.4356 25.946L24.5532 22.9924C24.6334 22.9349 24.6534 22.824 24.5984 22.7421L23.1706 20.6174C23.114 20.5332 22.9996 20.5112 22.9158 20.5685L16.7204 24.8077Z" fill="white"/>
<defs>
<linearGradient id="paint0_linear_0_14" x1="5" y1="5" x2="5" y2="35" gradientUnits="userSpaceOnUse">
<stop stop-color="#C5B489"/>
<stop offset="1" stop-color="#D7CD90"/>
</linearGradient>
</defs>
</svg>
