<svg width="40" height="40" viewBox="0 0 40 40" fill="none" xmlns="http://www.w3.org/2000/svg">
<rect x="5" y="5" width="30" height="30" rx="15" fill="url(#paint0_linear_0_8)"/>
<path fill-rule="evenodd" clip-rule="evenodd" d="M12.0503 20.1908C11.9833 20.0753 11.9832 19.9326 12.0502 19.817L15.8948 13.1857C15.9615 13.0707 16.0843 13 16.2171 13H23.8349C23.9684 13 24.0917 13.0714 24.1581 13.1872L27.9605 19.8185C28.0264 19.9334 28.0263 20.0745 27.9604 20.1893L24.1581 26.8129C24.0917 26.9286 23.9685 27 23.835 27H16.217C16.0842 27 15.9615 26.9293 15.8948 26.8145L12.0503 20.1908ZM20.0056 23.7692C22.0677 23.7692 23.7393 22.0817 23.7393 20C23.7393 17.9183 22.0677 16.2308 20.0056 16.2308C17.9436 16.2308 16.272 17.9183 16.272 20C16.272 22.0817 17.9436 23.7692 20.0056 23.7692Z" fill="white"/>
<defs>
<linearGradient id="paint0_linear_0_8" x1="5" y1="5" x2="5" y2="35" gradientUnits="userSpaceOnUse">
<stop stop-color="#52869D"/>
<stop offset="1" stop-color="#58A6AA"/>
</linearGradient>
</defs>
</svg>
