<svg width="40" height="40" viewBox="0 0 40 40" fill="none" xmlns="http://www.w3.org/2000/svg">
<rect x="5" y="5" width="30" height="30" rx="15" fill="url(#paint0_linear_0_110)"/>
<path fill-rule="evenodd" clip-rule="evenodd" d="M20.3917 19.4629C20.5069 19.3926 20.6046 19.2454 20.6835 19.0817C21.7209 19.5058 22.4499 20.5077 22.4499 21.6761C22.4499 23.2284 21.1633 24.4867 19.5762 24.4867C18.9247 24.4867 18.3238 24.2747 17.8418 23.9173C17.6837 23.8424 17.5536 23.7705 17.4472 23.7117C17.2821 23.6204 17.1738 23.5605 17.106 23.5699C16.9078 23.5972 16.9653 23.7796 17.0176 23.9452C17.0531 24.0577 17.0862 24.1626 17.035 24.2058C16.9814 24.2511 16.8078 24.0856 16.605 23.8922C16.3289 23.6289 15.9986 23.314 15.8428 23.4086C15.7197 23.4834 15.8392 23.6863 15.9856 23.9346L15.9964 23.9531C16.0583 24.0581 16.1299 24.165 16.1953 24.2625L16.1953 24.2625L16.1953 24.2625C16.3282 24.4608 16.4353 24.6205 16.3817 24.6476C16.317 24.6803 15.8659 24.3758 15.4857 23.9531C15.339 23.7899 15.1968 23.6131 15.0648 23.4488C14.7757 23.089 14.5348 22.7894 14.3996 22.8249C14.237 22.8676 14.36 23.203 14.5408 23.5259C14.6253 23.6769 14.7248 23.8306 14.8109 23.9637L14.8109 23.9637C14.9448 24.1707 15.0464 24.3278 15.0096 24.3471C14.9598 24.3731 14.5222 23.9464 14.2249 23.4086C14.0484 23.0891 13.9001 22.7361 13.7801 22.4503C13.6499 22.1404 13.553 21.9095 13.4891 21.8863C13.2673 21.8056 13.2673 22.2578 13.3563 22.9106C13.3679 22.9957 13.3852 23.0851 13.4065 23.176C14.2692 25.9675 16.9195 28 20.0552 28C23.8907 28 27 24.959 27 21.2077C27 17.6373 24.1834 14.7103 20.6048 14.4363C20.6093 14.2681 20.6971 13.9346 20.6971 13.9346C20.6971 13.9346 21.3289 12.4061 21.3622 12.0794C21.3644 12.0578 21.3671 12.0342 21.3699 12.0091C21.4092 11.6562 21.4824 11 20.9179 11C20.6164 11 20.4762 11.2243 20.3159 11.4808C20.2543 11.5792 20.1898 11.6825 20.1121 11.7796C19.552 12.479 18.6102 13.3524 18.0762 13.8177C16.9475 14.8012 15.8401 15.6095 15.1942 16.0809C14.9005 16.2954 14.7022 16.4401 14.6409 16.4999C14.1785 16.9507 12.5205 19.9412 12.5205 19.9412C12.5205 19.9412 11.9844 20.9006 12.175 21.0952C12.3655 21.2898 12.8251 21.2452 12.8251 21.2452C12.8251 21.2452 18.9989 19.8288 19.5517 19.7171C19.7004 19.687 19.8055 19.6697 19.8862 19.6564L19.8862 19.6564C20.1051 19.6202 20.1445 19.6137 20.3917 19.4629ZM16.0266 17.6427C15.6952 17.9577 15.1456 18.7096 15.1456 18.7096C15.1456 18.7096 16.167 18.7726 16.7296 18.2378C17.2922 17.7031 17.1633 16.7917 17.1633 16.7917C17.1633 16.7917 16.358 17.3277 16.0266 17.6427Z" fill="white"/>
<defs>
<linearGradient id="paint0_linear_0_110" x1="5.19339" y1="5" x2="5.19339" y2="34.6132" gradientUnits="userSpaceOnUse">
<stop stop-color="#0C69C8"/>
<stop offset="1" stop-color="#0180C7"/>
</linearGradient>
</defs>
</svg>
