<svg width="40" height="40" viewBox="0 0 40 40" fill="none" xmlns="http://www.w3.org/2000/svg">
<rect x="5" y="5" width="30" height="30" rx="15" fill="url(#paint0_linear_0_35)"/>
<path fill-rule="evenodd" clip-rule="evenodd" d="M23.6169 23.9654C23.8243 23.2069 23.4217 21.6475 23.4217 21.6475C23.4217 21.6475 23.1297 22.9178 22.6733 23.3873C22.284 23.7878 21.8071 24.0656 21.1231 24.1386C21.6823 23.8669 22.0669 23.3005 22.0669 22.6458C22.0669 21.7268 21.3091 20.9819 20.3742 20.9819C19.4393 20.9819 18.6814 21.7268 18.6814 22.6458C18.6814 22.8969 18.738 23.1349 18.8392 23.3483C18.2545 22.8825 18.1625 22.1356 18.1625 22.1356C18.1625 22.1356 17.5096 24.8464 19.3087 26.1216C21.1078 27.3968 24.6321 26.3007 24.6321 26.3007C24.6321 26.3007 19.5886 29.8495 15.8513 25.9871C12.6319 22.6599 15.011 18.2797 15.011 18.2797C15.011 18.2797 14.9083 18.686 14.9083 19.1577C14.9083 19.6294 15.164 19.9883 15.164 19.9883C15.164 19.9883 15.9269 18.3803 16.5206 17.7263C17.0825 17.1074 17.7869 16.6055 18.3953 16.1719C18.8636 15.8382 19.2751 15.5449 19.5208 15.2701C20.8743 13.7567 20.0444 11 20.0444 11C20.0444 11 21.5702 12.3451 21.9961 14.0823C22.1585 14.7445 22.0541 15.4979 21.9607 16.1717C21.809 17.2654 21.6865 18.1492 22.7819 18.0919C24.552 17.9992 23.0138 15.2701 23.0138 15.2701C23.0138 15.2701 27.0291 17.3805 26.7291 21.0716C26.4292 24.7626 22.3402 25.6017 22.3402 25.6017C22.3402 25.6017 23.4094 24.7238 23.6169 23.9654Z" fill="white"/>
<defs>
<linearGradient id="paint0_linear_0_35" x1="5" y1="5" x2="5" y2="35" gradientUnits="userSpaceOnUse">
<stop stop-color="#FB9B51"/>
<stop offset="1" stop-color="#FBAE46"/>
</linearGradient>
</defs>
</svg>
