<svg width="40" height="40" viewBox="0 0 40 40" fill="none" xmlns="http://www.w3.org/2000/svg">
<rect x="5" y="5" width="30" height="30" rx="15" fill="url(#paint0_linear_0_51)"/>
<path fill-rule="evenodd" clip-rule="evenodd" d="M18.2357 25.9961C20.4331 25.9961 22.3143 24.7748 23.0909 23.0436C23.1004 23.0225 19.9729 23.8564 20.0726 23.5616C20.1171 23.43 22.0343 22.7296 23.4311 21.9127C24.2339 21.4432 24.6036 20.4492 24.6036 20.4492C24.6036 20.4492 23.2511 21.1059 22.5673 21.2725C21.1894 21.6082 19.9765 21.5721 19.9765 21.5371C19.9765 21.4615 21.9905 21.0788 24.7898 19.373C26.1065 18.5706 26.4641 17.1886 26.4641 17.1886C26.4641 17.1886 25.0165 18.0508 24.1414 18.3355C22.0661 19.0106 20.1723 19.214 20.1723 19.1227C20.1723 18.9271 21.8389 18.4688 23.6059 17.6126C24.5247 17.1674 25.3204 16.5858 26.2424 15.9391C27.7512 14.8808 28 12.9961 28 12.9961C28 12.9961 26.5119 13.9559 25.7857 14.2746C22.7893 15.5898 20.1434 16.2797 18.2357 16.429C15.3559 16.6545 13 18.6638 13 21.2725C13 23.8813 15.3441 25.9961 18.2357 25.9961Z" fill="white"/>
<defs>
<linearGradient id="paint0_linear_0_51" x1="5" y1="5" x2="5" y2="35" gradientUnits="userSpaceOnUse">
<stop stop-color="#90A7DA"/>
<stop offset="1" stop-color="#A6C2F2"/>
</linearGradient>
</defs>
</svg>
