<svg width="40" height="40" viewBox="0 0 40 40" fill="none" xmlns="http://www.w3.org/2000/svg">
<rect x="5" y="5" width="30" height="30" rx="15" fill="url(#paint0_linear_0_93)"/>
<g clip-path="url(#clip0_0_93)">
<path fill-rule="evenodd" clip-rule="evenodd" d="M23.0885 26.9515C21.8257 27.0162 20.38 27.0162 19.8887 26.9515C16.0562 26.4473 13 23.6453 13 19.8578C13 16.0703 16.134 13 20 13C23.866 13 27 16.0703 27 19.8578C27 21.6193 26.3221 23.2257 25.2079 24.4403C24.9053 24.7701 25.3205 25.0014 25.7422 25.2364C26.1559 25.467 26.576 25.7011 26.3318 26.0351C26.0628 26.4032 24.6045 26.8739 23.0885 26.9515ZM19.0156 19.0006C19.0156 19.5924 18.5259 20.0721 17.9219 20.0721C17.3178 20.0721 16.8281 19.5924 16.8281 19.0006C16.8281 18.6037 17.0484 18.2572 17.3757 18.072C17.3945 18.588 17.8188 19.0006 18.3394 19.0006H19.0156V19.0006ZM22.4056 18.072C22.3868 18.588 21.9625 19.0006 21.4419 19.0006H20.7656V19.0006C20.7656 19.5924 21.2553 20.0721 21.8594 20.0721C22.4634 20.0721 22.9531 19.5924 22.9531 19.0006C22.9531 18.6037 22.7329 18.2572 22.4056 18.072Z" fill="white"/>
</g>
<defs>
<linearGradient id="paint0_linear_0_93" x1="5.19339" y1="5" x2="5.19339" y2="34.6132" gradientUnits="userSpaceOnUse">
<stop stop-color="#516AAC"/>
<stop offset="1" stop-color="#7773D4"/>
</linearGradient>
<clipPath id="clip0_0_93">
<rect width="14" height="14" fill="white" transform="translate(13 13)"/>
</clipPath>
</defs>
</svg>
