<svg width="40" height="40" viewBox="0 0 40 40" fill="none" xmlns="http://www.w3.org/2000/svg">
<rect x="5" y="5" width="30" height="30" rx="15" fill="url(#paint0_linear_0_41)"/>
<path fill-rule="evenodd" clip-rule="evenodd" d="M16.4211 28C17.1766 28 17.8391 27.4661 18.2105 26.6642C18.5819 27.4661 19.2445 28 20 28C20.6887 28 21.3001 27.5564 21.6842 26.8705C22.0683 27.5564 22.6797 28 23.3684 28C24.5311 28 25.4737 26.7355 25.4737 25.1756C25.4737 24.8682 25.4371 24.5723 25.3694 24.2953C26.9851 23.0034 28 21.1368 28 19.0609C28 15.1613 24.4183 12 20 12C15.5817 12 12 15.1613 12 19.0609C12 21.0618 12.9429 22.8683 14.458 24.1531C14.3662 24.4702 14.3158 24.815 14.3158 25.1756C14.3158 26.7355 15.2583 28 16.4211 28ZM19.8948 22.7858C22.5108 22.7858 24.6316 21.1808 24.6316 19.201C24.6316 17.2211 22.5108 15.6162 19.8948 15.6162C17.2787 15.6162 15.1579 17.2211 15.1579 19.201C15.1579 21.1808 17.2787 22.7858 19.8948 22.7858Z" fill="white"/>
<defs>
<linearGradient id="paint0_linear_0_41" x1="5" y1="5" x2="5" y2="35" gradientUnits="userSpaceOnUse">
<stop stop-color="#A864C7"/>
<stop offset="1" stop-color="#C261D4"/>
</linearGradient>
</defs>
</svg>
